<?xml version="1.0" encoding="UTF-8" standalone="no"?>
<svg
   xmlns:dc="http://purl.org/dc/elements/1.1/"
   xmlns:cc="http://creativecommons.org/ns#"
   xmlns:rdf="http://www.w3.org/1999/02/22-rdf-syntax-ns#"
   xmlns:svg="http://www.w3.org/2000/svg"
   xmlns="http://www.w3.org/2000/svg"
   xmlns:sodipodi="http://sodipodi.sourceforge.net/DTD/sodipodi-0.dtd"
   xmlns:inkscape="http://www.inkscape.org/namespaces/inkscape"
   viewBox="0 0 150.84345 66.479965"
   version="1.1"
   id="svg8"
   inkscape:version="1.0.1 (c497b03c, 2020-09-10)"
   sodipodi:docname="encryption.svg"
   inkscape:export-filename="/Users/parksb/Downloads/ê·¸ë¦¬ê¸°.png"
   inkscape:export-xdpi="96"
   inkscape:export-ydpi="96">
  <defs
     id="defs2">
    <rect
       x="90.044586"
       y="39.531769"
       width="98.660484"
       height="27.874968"
       id="rect40" />
    <rect
       x="127.00247"
       y="63.807266"
       width="34.734409"
       height="14.077382"
       id="rect118" />
    <rect
       x="90.044586"
       y="39.531769"
       width="89.731949"
       height="27.010916"
       id="rect40-4" />
    <rect
       x="90.044586"
       y="39.531769"
       width="98.660484"
       height="27.874968"
       id="rect929" />
  </defs>
  <sodipodi:namedview
     id="base"
     pagecolor="#ffffff"
     bordercolor="#666666"
     borderopacity="1.0"
     inkscape:pageopacity="0.0"
     inkscape:pageshadow="2"
     inkscape:zoom="2.7818292"
     inkscape:cx="221.57498"
     inkscape:cy="70.079711"
     inkscape:document-units="mm"
     inkscape:current-layer="g890"
     inkscape:document-rotation="0"
     showgrid="false"
     inkscape:lockguides="true"
     inkscape:window-width="934"
     inkscape:window-height="1155"
     inkscape:window-x="985"
     inkscape:window-y="23"
     inkscape:window-maximized="0">
    <sodipodi:guide
       position="0,66.479967"
       orientation="0,570.11696"
       inkscape:locked="true"
       id="guide1026" />
    <sodipodi:guide
       position="150.84345,66.479967"
       orientation="251.26286,0"
       inkscape:locked="true"
       id="guide1028" />
    <sodipodi:guide
       position="150.84345,0"
       orientation="0,-570.11696"
       inkscape:locked="true"
       id="guide1030" />
    <sodipodi:guide
       position="0,0"
       orientation="-251.26286,0"
       inkscape:locked="true"
       id="guide1032" />
  </sodipodi:namedview>
  <metadata
     id="metadata5">
    <rdf:RDF>
      <cc:Work
         rdf:about="">
        <dc:format>image/svg+xml</dc:format>
        <dc:type
           rdf:resource="http://purl.org/dc/dcmitype/StillImage" />
        <dc:title />
      </cc:Work>
    </rdf:RDF>
  </metadata>
  <g
     inkscape:groupmode="layer"
     id="layer6"
     inkscape:label="ë ˆì´ì–´ 4"
     sodipodi:insensitive="true">
    <rect
       style="fill:#ffffff;fill-opacity:1;fill-rule:nonzero;stroke-width:0.266354"
       id="rect1024"
       width="150.84344"
       height="66.479965"
       x="0"
       y="-4.0516355e-07" />
  </g>
  <g
     inkscape:groupmode="layer"
     id="layer5"
     inkscape:label="ë ˆì´ì–´ 3">
    <rect
       style="fill:#ffce05;fill-opacity:1;fill-rule:nonzero;stroke-width:0.198223"
       id="rect976"
       width="61.153"
       height="8.4709778"
       x="51.064999"
       y="15.919593" />
    <rect
       style="fill:#ffce05;fill-opacity:1;fill-rule:nonzero;stroke-width:0.254723"
       id="rect976-5"
       width="95.47139"
       height="8.9599028"
       x="39.168602"
       y="7.9575577" />
    <rect
       style="fill:#1a1a1a;fill-opacity:1;fill-rule:nonzero;stroke-width:0.268593"
       id="rect976-5-3"
       width="93.000931"
       height="10.226825"
       x="55.84296"
       y="40.672638" />
    <rect
       style="fill:#1a1a1a;fill-opacity:1;fill-rule:nonzero;stroke-width:0.266871"
       id="rect976-5-3-4"
       width="63.321808"
       height="14.828205"
       x="64.968002"
       y="45.674999" />
  </g>
  <g
     inkscape:groupmode="layer"
     id="layer4"
     inkscape:label="ë ˆì´ì–´ 2" />
  <g
     inkscape:label="ë ˆì´ì–´ 1"
     inkscape:groupmode="layer"
     id="layer1"
     transform="translate(-5.9710289,-6.2316925)">
    <g
       id="g890"
       transform="translate(40.150248,11.80573)">
      <g
         id="layer3"
         inkscape:label="ë ˆì´ì–´ 3" />
      <g
         id="layer2"
         inkscape:label="ë ˆì´ì–´ 2"
         style="display:inline"
         transform="translate(-74.152485,-41.710773)">
        <g
           id="body/mono/Macbook"
           stroke="none"
           stroke-width="1"
           fill="none"
           fill-rule="evenodd"
           transform="matrix(0.05865016,0,0,0.06039681,40.862643,59.759976)"
           style="display:inline;fill:none;fill-rule:evenodd;stroke:none;stroke-width:1">
          <path
             d="m 995.288,209.4717 c -14.85835,1.402 -29.7167,2.802 -44.57503,4.204 -71.16069,5.225 -142.29323,16.137 -212.90915,22.686 -1.75822,-2.75 -5.19965,-2.297 -7.28909,-0.386 -7.04638,-0.593 -14.94375,-5.769 -21.32664,-0.385 -0.20727,-0.028 -0.41454,-0.061 -0.62391,-0.08 -11.36484,-20.963 -19.22053,-43.322 -26.84501,-65.711 -4.86633,-13.765 -11.41379,-27.09 -23.51295,-36.332 -20.64856,-13.775 -67.95985,-41.708 -92.20608,-40.534 -0.40206,-4.172 -2.42588,-8.472 -5.74856,-11.25 7.32344,-11.999 -21.9589,-19.828 -24.02437,-18.437 1.32386,-40.088 -18.29769,-74.902 -61.56344,-82.885 -38.76084,-7.762 -93.89138,-9.066 -114.73785,29.863 -2.2915,-0.248 -25.71526,-0.3652 -27.98177,-0.1212 C 328.42043,5.8145 289.72314,46.456581 305.5835,60.605581 163.78606,120.88758 83.159745,113.6947 43.912479,283.1637 c -5.305888,15.92 -5.692316,33.341 -11.295054,48.906 -19.932987,44.731 -36.1006201,92.362 -40.124297,141.034 -9.71807,2.393 -10.835703,18.86 0.4208129,21.242 4.2996962,0.911 7.895285,2.155 11.0304769,4.514 -2.4508703,39.886 7.5869692,131 13.9115372,130.719 12.895979,39.443 70.418861,50.57482 111.143115,36.71382 -7.02036,12.693 0,20.67376 0,27.45567 146.53669,5.328 306.75908,2.25951 453.25514,9.56651 18.73932,-0.256 38.4494,4.423 56.9325,1.73 11.27214,-2.597 11.29089,-19.63 -0.14269,-21.736 l 49.95937,-10.42813 c -1.11658,-0.405 20.59354,-14.28276 37.00178,-40.21576 15.2729,-29.01 4.87829,-64.0278 11.79865,-95.5838 54.05041,-4.248 108.9945,-6.06431 162.45328,-14.86131 7.28908,20.959 38.84209,-4.107 48.87161,-14.19 -0.0125,-0.016 -0.0249,-0.031 -0.0375,-0.047 4.85383,-1.276 8.74626,-5.648 8.87646,-10.824 3.40393,-4.674 4.11846,-11.262 0.85412,-15.779 14.96145,-82.968 37.77032,-167.68 46.01451,-251.428 2.9143,-0.62 5.6591,-1.848 7.9859,-3.74 l -0.1885,-0.181 c 3.9424,-4.224 4.709,-11.515 -1.8634,-15.104 -5.3018,-2.898 -9.7286,-1.999 -15.48231,-1.455 z"
             id="ðŸŽ¨-Background-9"
             fill="#ffffff"
             style="stroke-width:1.02007" />
          <path
             d="m 388.0715,1.1835 c 4.243,-10.663 18.586,-6.518 16.987,4.684 -0.957,6.71 -4.632,13.797 -7.933,19.678 -2.688,4.787 -5.754,9.459 -9.911,13.047 7.4,6.904 15.081,13.556 22.957,19.872 8.594,6.891 17.631,13.243 26.972,19.081 8.191,5.12 16.752,9.656 24.473,15.498 7.179,5.431 13.719,11.963 17.047,20.49 3.54522,9.08034 2.00452,18.45784 -0.6061,27.53206 l -0.2999,1.02594 c -2.667,8.99 -7.284,19.827 -0.882,28.297 3.259,4.312 7.997,7.366 12.088,10.813 3.636,3.064 7.049,6.396 10.179,9.975 6.825,7.802 12.376,16.581 15.879,26.363 l 0.31326,0.88868 c 3.00251,8.65942 5.19684,19.26749 1.13974,27.76932 -1.164,2.437 -4.918,1.645 -5.57,-0.728 -1.474,-5.376 -1.397,-11.006 -2.633,-16.458 -1.286,-5.67 -3.426,-11.052 -6.221,-16.144 -5.40784,-9.85076 -12.73172,-18.26521 -21.38452,-25.37905 l -2.59023,-2.10641 c -6.75018,-5.53962 -12.95211,-11.41644 -14.32225,-20.58454 -1.466,-9.809 2.464,-19.153 4.991,-28.437 1.761,-6.47 2.336,-12.672 0.433,-18.519 -2.325,3.795 -5.497,7.397 -8.006,10.61 -4.997,6.401 -10.041,12.763 -15.072,19.137 -5.158,6.536 -10.189,13.175 -14.98,19.986 -2.143,3.047 -4.263,6.112 -6.376,9.18 -1.589,2.306 -3.805,4.61 -5.537,6.962 0.421,1.258 0.389,2.708 -0.374,3.738 -9.185,12.41 -22.252,-13.484 -25.66,-20.026 -6.94,-13.323 -12.105,-27.477 -19.068,-40.797 -7.215,-13.808 -15.431,-27.248 -24.588,-39.854 -5.539,-7.625 -11.747,-14.787 -16.814,-22.654 -11.937,10.824 -27.645,18.08 -42.073,24.66 -15.85238,7.228571 -32.32154,13.13379 -48.57474,19.40445 l -4.80109,1.86474 c -28.00475,10.9294 -56.69387,22.93666 -79.97117,42.34981 -27.353,22.813 -43.535,54.609 -55.582,87.535 -13.868,37.905 -25.341,76.833 -36.036,115.736 -5.473,19.905 -10.666,39.9 -15.548,59.959 -4.302,17.672 -7.868,35.52 -12.848,53.01 10.1,-0.357 21.619,3.553 30.242,4.682 39.299,5.144 78.069,13.344 115.172,27.541 4.583,1.754 5.909,6.331 4.911,10.041 2.643,-0.746 5.284,-1.502 7.927,-2.244 -2.89566,-4.43682 -1.5136,-12.36916 -1.28594,-17.28688 l 0.0139,-0.33812 c 0.234,-6.553 0.945,-13.113 1.406,-19.654 0.87785,-12.46892 2.02069,-24.84667 3.54021,-37.24416 l 0.38779,-3.09984 c 1.722,-13.488 2.995,-27.055 4.874,-40.52 l 0.222,-1.541 c -0.901,-3.445 -1.95,-6.848 -3.051,-10.236 -2.934,-9.025 -7.075,-17.52 -10.704,-26.261 -0.428,-1.029 1.038,-1.62 1.723,-1.003 6.146,5.529 11.028,12.543 14.95,19.879 0.068,-0.346 0.128,-0.693 0.199,-1.039 l 0.44754,-2.2028 c 1.10362,-5.37205 2.446,-11.02417 5.74146,-15.3812 0.351,-0.463 1.045,-0.56 1.377,0 3.154,5.337 3.507,12.096 3.992,18.169 0.549,6.87 0.618,13.827 0.521,20.716 -0.189,13.463 -1.138,26.964 -1.894,40.405 -0.74165,13.20847 -2.19815,26.24864 -4.0752,39.32726 l -0.3568,2.45274 c -0.91758,6.22508 -1.66879,12.52747 -2.87907,18.70998 l -0.34193,1.68302 c -0.647,3.066 -1.045,7.389 -2.333,10.98 33.138,-9.243 66.327,-18.275 99.579,-27.148 24.033,-6.414 48.091,-12.732 72.139,-19.09 1.269,-2.287 2.849,-4.423 4.821,-6.332 6.497,-6.292 15.107,-9.099 23.004,-4.256 0.642,0.395 0.696,1.401 0,1.782 -1.513,0.827 -3.029,1.675 -4.518,2.559 l 14.44,-3.911 c 10.793,-2.925 21.715,-6.58 32.762,-8.619 20.347,-10.041 42.231,-17.309 63.665,-24.492 l 2.52576,-0.85434 c 10.97473,-3.74158 22.32645,-7.93023 33.66524,-10.00466 8.301,-1.518 18.045,0.314 21.383,8.818 4.226,2.785 8.202,6.058 12.039,9.277 2.774,2.326 5.433,4.799 8.137,7.207 l 0.49849,0.43762 c 2.21057,1.91798 3.96172,3.20252 4.50451,6.25538 0.28,1.577 -0.722,3.709 -2.667,3.5 -5.951,-0.637 -10.79,-7.535 -14.826,-11.654 -3.118,-3.184 -6.261,-6.476 -9.107,-9.975 -1.659,0.903 -3.933,0.741 -4.989,-1.259 -5.476,-10.369 -20.477,-3.184 -28.777,-0.725 l -11.88994,3.51923 c -5.94458,1.76213 -11.88686,3.53297 -17.81906,5.33477 -16.304,4.951 -32.528,10.492 -48.98,15.039 1.472,1.618 1.269,4.496 -1.527,5.591 -12.878,5.053 -27.006,7.666 -40.385,11.133 -8.447,2.191 -16.889,4.395 -25.328,6.612 -1.447,2.344 -2.488,4.996 -2.926,8.083 -1.61045,11.35053 1.49554,24.44657 4.52105,35.42466 l 0.45575,1.63794 c 2.48708,8.82623 6.14611,19.64607 13.7612,25.2194 1.859,1.359 4.226,2.305 6.612,2.519 14.907,-7.673 29.813,-15.345 44.728,-23.003 2.763,-1.419 5.316,0.502 5.936,2.786 5.259,-0.863 10.506,-2.223 15.285,-3.845 8.03,-2.727 14.3,-7.928 21.828,-11.525 14.56608,-6.95808 29.4409,1.58884 42.4825,8.08671 l 3.00577,1.4773 c 5.84834,2.83755 18.01544,8.28873 20.82173,0.52799 2.714,-7.508 -5.867,-15.532 -11.409,-18.911 -6.606,-4.029 -14.298,-6.185 -21.764,-7.981 -4.263,-1.026 -8.578,-1.863 -12.919,-2.474 -4.924,-0.693 -10.01,-0.589 -14.751,-2.186 -2.356,-0.792 -2.718,-4.534 0,-5.152 7.29809,-1.66089 16.00863,0.15078 23.62447,2.00213 l 3.98053,0.98087 c 7.673,1.883 15.42,4.246 22.409,8.002 5.082,2.732 10.446,6.882 13.95,11.962 3.04292,-2.82661 6.83016,-2.73105 10.77523,-1.68271 l 2.14129,0.59525 c 3.53587,0.97987 6.40191,1.65432 9.84248,0.97546 0.46,-2.503 0.926,-5.007 1.425,-7.511 4.903,-24.614 10.28,-49.134 16.213,-73.523 10.23387,-42.06774 22.07575,-83.67378 35.42596,-124.85345 l 1.34004,-4.11655 c 3.079,-9.419 5.557,-19.681 10.521,-28.334 4.695,-8.182 12.217,-12.895 21.154,-15.391 10.142,-2.832 20.799,-4.314 31.145,-6.227 2.308,-0.426 4.622,-0.831 6.932,-1.25 -1.95217,-3.52467 -3.40929,-7.52565 -4.72181,-10.5961 l -0.23019,-0.5319 c -2.8197,-6.4287 -5.35266,-12.97323 -7.79863,-19.55267 l -1.82967,-4.94628 c -4.41632,-11.91079 -8.97534,-23.62598 -15.1847,-34.76605 -6.536,-11.724 -15.207,-21.309 -26.016,-29.242 -22.038,-16.176 -48.601,-24.427 -69.976,-41.714 -0.876,-0.708 0.247,-1.919 1.136,-1.471 14.433,7.252 30.014,12.183 45.026,18.087 l 2.96135,1.16843 c 11.86537,4.70367 23.9155,9.82419 34.18565,17.43957 11.45,8.492 20.468,19.038 27.246,31.579 6.68,12.362 10.953,26.199 15.666,39.403 l 1.26052,3.51826 c 1.90099,5.27571 3.86448,10.53565 6.11448,15.66974 1.786,4.076 5.119,8.729 6.634,13.385 4.145,-0.719 8.289,-1.44 12.438,-2.133 89.867,-15.004 180.738,-23.82 271.81104,-26.399 3.563,-0.101 5.406,3.299 4.881,6.407 -8.74,51.681 -16.507,103.539 -25.02904,155.259 -3.72,22.573 -7.514,45.129 -11.397,67.674 -1.967,11.422 -4.241,22.8 -6.104,34.239 -1.504,9.238 -2.596,18.548 -5.178,27.572 -2.316,8.091 -5.87,15.893 -11.707,22.066 -6.292,6.654 -15.074,9.875 -23.914,11.397 -22.441,3.862 -45.459,5.439 -68.082,8.012 l -120.447,13.703 c 1.76014,15.99862 1.89168,31.74834 1.08409,47.93321 l -0.46026,8.83535 c -0.37627,7.10663 -0.82608,14.22394 -1.84683,21.25744 -1.28,8.823 -5.316,16.294 -11.261,22.884 -5.459,6.052 -12.091,11.216 -18.542,16.164 -6.696,5.138 -13.615,10.097 -21.488,13.274 l -1.02187,0.40558 c -6.90687,2.69666 -19.86344,6.87249 -29.30413,5.34642 1.234,6.183 3.622,12.831 1.505,18.949 -0.982,2.841 -4.697,4.258 -6.973,1.841 -4.509,-4.791 -4.861,-11.119 -5.929,-17.369 -1.111,-6.504 -2.069,-13.031 -2.92,-19.574 -1.646,-12.651 -2.927,-25.418 -3.318,-38.176 -0.402,-13.102 -0.247,-26.222 0.459,-39.31 0.363,-6.721 0.813,-13.438 1.666,-20.116 0.364,-2.848 0.736,-5.698 1.161,-8.539 0.155,-1.036 0.327,-2.067 0.512,-3.096 l -10.81082,1.21969 c -16.5767,1.8506 -33.16129,3.52174 -49.85518,3.78131 -1.977,0.03 -3.498,-0.87 -4.492,-2.181 -1.059,1.725 -2.903,2.959 -5.544,2.949 -23.313,-0.087 -45.023,-7.71 -66.227,-16.694 -10.688,-4.53 -21.21,-9.434 -31.914,-13.925 -9.991,-4.192 -20.672,-7.183 -30.422,-11.905 l -25.62,13.438 c -0.188,0.661 -0.429,1.286 -0.685,1.809 -1.668,3.405 -4.957,5.252 -8.316,6.643 -3.224,1.338 -6.563,1.754 -9.816,1.416 -19.43025,10.182 -38.865,20.35444 -58.31269,30.50297 L 330.4925,589.3675 c -38.756,20.179 -77.359,40.689 -116.359,60.394 l -2.87119,1.44535 c -13.47075,6.75465 -27.93561,13.60158 -42.88481,18.71065 -0.266,3.784 -0.098,7.464 0.219,11.469 l 0.0763,0.87246 c 0.44571,4.73283 1.4014,10.66313 -2.39531,14.03254 -1.975,1.752 -5.503,1.759 -6.846,-0.883 -2.437,-4.791 -0.249,-12.344 0.523,-17.549 0.274,-1.851 0.608,-3.754 1.102,-5.6 -17.138,5.102 -34.795,7.576 -52.235,4.711 -16.98,-2.787 -30.131,-13.484 -40.733,-26.568 -11.189,-13.807 -19.14,-29.898 -23.406,-47.147 -4.855,-19.628 -5.172,-39.898 -5.058,-60.003 0.121,-21.409 0.913,-42.924 3.517,-64.189 -2.853,-0.671 -6.017,-1.251 -8.9,-1.051 -1.428,2.285 -4.198,3.247 -6.701,2.95 -5.443,6.003 8.363,12.138 12.775,13.674 1.532,0.534 1.368,3.022 -0.399,2.947 l -1.113023,-0.0529 c -6.817361,-0.36268 -13.860615,-1.52666 -17.868977,-7.86209 -3.212,-5.078 -2.247,-11.094 1.582,-15.235 2.529,-23.912 8.575,-47.197 14.202,-70.523 5.522,-22.895 11.663,-45.643 18.172,-68.276 l 2.918025,-10.13009 C 68.056823,290.01584 78.768848,254.24093 92.9055,220.1625 c 7.059,-17.016 15.191,-33.719 26.214,-48.556 10.275,-13.831 22.406,-25.666 36.35,-35.774 25.99501,-18.84572 56.49747,-30.23275 86.46743,-41.081569 L 243.2785,94.2655 c 15.531,-5.618 31.024,-11.303 46.378,-17.39 13.579,-5.383 26.588,-12.208 40.103,-17.672 -0.439,-0.797 -0.863,-1.603 -1.271,-2.418 l -0.24985,0.210148 c -0.0427,0.03396 -0.0865,0.06685 -0.13215,0.09785 -1.359,0.942 -3.36,0.479 -4.48,-0.578 -3.16243,-2.98402 -2.09178,-6.296493 0.0191,-9.391161 l 0.2749,-0.393837 c 2.582,-3.617 4.885,-7.441 7.268,-11.189 l 1.49225,-2.343863 c 3.99996,-6.261619 8.20342,-12.565026 13.53675,-17.740137 2.47,-2.398 5.174,-4.192 8.039,-5.529 -0.245,-0.518 1.903,-1.577 2.512,-1.044 9.077,-3.322 19.52,-2.626 29.416,-1.71 m 356.624,544.951 -12.62,1.435 c -13.884,1.5798 -27.7734,3.1074 -41.66453,4.62017 l -30.17247,3.27883 c -0.077,1.72 -0.286,3.402 -0.324,4.701 -0.197,6.697 -0.344,13.397 -0.483,20.096 -0.279,13.428 0.027,26.869 0.911,40.271 0.85687,12.98625 1.98533,25.97426 3.73886,38.87256 l 0.35914,2.57844 0.208,1.356 c 1.431,0.138 2.837,0.818 4.006,2.215 2.552,3.047 11.793,0.085 15.402,-1.199 5.935,-2.112 11.524,-5.68 16.681,-9.258 5.03624,-3.49365 9.5711,-7.5675 13.92891,-11.8589 l 3.56554,-3.52638 c 3.5468,-3.52453 7.09745,-7.27927 9.27055,-11.71272 2.947,-6.012 3.328,-13.392 4.192,-19.94 1.064,-8.054 2.331,-16.107 3.67,-24.121 m -357.024,-122.35 -1.309,0.344 c -47.551,12.635 -95.031,25.643 -142.728,37.72 -23.604,5.978 -47.32,11.521 -70.953,17.384 l -3.82624,0.95695 c -18.64392,4.71209 -37.51165,10.38327 -51.78876,23.90605 -0.527,0.498 -1.292,-0.267 -0.796,-0.796 15.387,-16.38 37.271,-23.314 58.283,-29.325 3.884,-1.111 7.773,-2.196 11.658,-3.301 -28.576,-10.187 -57.603,-19.05 -87.3,-25.371 -7.647,-1.628 -15.383,-2.823 -23.024,-4.457 -5.3289,-1.1403 -10.53306,-2.78847 -15.805665,-4.15573 L 44.7165,479.4455 44.66142,492.55313 c -0.06902,18.56506 -0.03606,37.11499 0.91108,55.67737 l 0.179293,3.43857 c 1.105062,20.65731 2.82997,41.74353 10.160707,61.22143 5.957,15.828 15.452,30.739 27.869,42.268 6.283,5.833 13.038,10.374 21.388,12.616 7.753,2.081 15.876,2.325 23.846,1.77 38.229,-2.667 72.259,-23.434 105.467,-40.628 54.317,-28.123 108.64,-56.232 163.012,-84.247 -1.47,-1.005 -2.854,-2.163 -4.113,-3.464 -7.291,-7.53 -11.137,-17.838 -13.663,-27.821 -2.689,-10.626 -4.297,-22.015 -4.484,-32.985 m 70.4021,75.1261 c 0.48,-0.258 1.036,0.065 1.058,0.607 0.168,4.15269 -2.12694,8.24851 -3.84164,11.98955 l -0.18136,0.39945 c -2.083,4.634 -4.364,9.206 -6.723,13.706 -4.715,8.991 -9.615,17.886 -14.729,26.655 -10.284,17.641 -21.712,34.539 -35.22,49.899 -3.051,3.47 -8.069,-0.979 -6.111,-4.715 9.44,-18.01 20.445,-35.015 31.773,-51.872 5.671,-8.44 11.338,-16.888 17.065,-25.29 2.38917,-3.50583 4.80889,-6.99917 7.29389,-10.43949 l 1.49911,-2.05751 m 572.0719,-348.9581 c -47.717,1.441 -95.378,4.553 -142.868,9.43 -44.166,4.535 -88.17,10.572 -131.926,18.098 -9.13917,1.57167 -18.26722,3.20792 -27.38359,4.90875 l -5.46841,1.02825 c -9.118,1.728 -20.257,2.441 -28.375,7.312 -8.559,5.135 -10.872,15.867 -13.72,24.717 -3.348,10.408 -6.611,20.846 -9.786,31.309 -12.608,41.543 -24.125,83.446 -34.399,125.626 -5.1,20.937 -9.625,41.991 -14.393,63.004 -4.236,18.67 -8.91,37.129 -13.793,55.612 0.602,-0.468 1.34,-0.824 2.231,-1.014 24.24781,-5.15859 48.99959,-7.40134 73.60983,-10.25119 l 2.38117,-0.27781 c 25.459,-2.994 50.918,-5.966 76.392,-8.83 l 168.659,-18.967 c 9.947,-1.118 20.603,-1.27 30.283,-3.939 16.45776,-4.54014 20.31535,-22.93987 23.07665,-37.59313 l 0.0833,-0.44287 c 8.325,-44.273 14.952,-88.931 22.716,-133.316 m -395.507,163.165 c -6.548,-0.432 -15.51,-6.429 -20.478,-5.999 2.608,4.376 3.785,9.367 2.282,14.697 -4.183,14.832 -23.1,7.158 -32.212,2.627 -7.471,-3.717 -14.685,-8.265 -22.956,-10.006 -9.37,-1.97 -15.718,1.756 -23.634,6.051 -6.502,3.527 -13.583,6.06 -20.865,7.371 -3.872,0.698 -7.55,0.772 -11.221,0.5 -0.221,0.18 -0.47,0.347 -0.754,0.496 l -1.942,1.019 c 8.781,0.402 17.725,3.112 25.897,5.593 8.468,2.5696 16.78112,5.66784 25.04995,8.83597 l 8.13467,3.1266 c 20.06543,7.68383 40.83588,14.98037 62.55138,14.91643 1.561,-0.004 2.84,0.428 3.847,1.133 m -30.3357,-96.835 c 6.469,-0.791 12.44,0.057 17.609,4.268 6.234,5.078 10.422,13.5 19.384,14.053 2.613,0.161 3.22,3.835 0.623,4.603 -6.671,1.975 -12.072,-1.634 -16.617,-6.32 l -3.05581,-3.19271 c -4.49147,-4.65074 -8.63388,-8.24616 -16.25519,-7.96829 -8.162,0.298 -16.338,2.184 -24.447,3.143 -9.186,1.086 -18.37,2.012 -27.585,2.811 -0.428,0.037 -0.501,-0.637 -0.1,-0.736 l 10.3212,-2.56866 m 33.8784,-34.53854 1.06691,-0.10678 c 9.39375,-0.91214 17.98467,-0.94753 26.37409,4.10578 l 1.60908,0.97305 c 7.56392,4.59736 15.79679,10.01362 20.52692,17.45695 0.774,1.219 -0.505,2.652 -1.8,2.342 -9.091,-2.182 -15.737,-8.852 -23.382,-13.844 -8.58,-5.602 -17.443,-4.678 -27.226,-3.808 -9.472,0.843 -18.939,2.001 -28.318,3.58 -8.813,1.482 -17.654,3.822 -26.556,4.568 l 0.002,-0.018 c -1.017,-0.002 -1.597,-1.529 -0.56,-2.047 9.034,-4.511 19.497,-6.646 29.324,-8.707 M 226.8619,176.6751 c -0.0117,-0.743 1.0333,-1.021 1.3983,-0.378 6.112,10.753 9.307,23.934 12.563,35.781 3.41,12.41 6.163,24.946 8.636,37.574 5.009,25.571 7.678,50.995 7.85923,77.057 0.0248,3.721 -6.03723,4.711 -6.63023,0.898 -3.937,-25.351 -7.709,-50.728 -11.676,-76.072 -1.996,-12.747 -4.319,-25.445 -6.542,-38.154 m 54.9,-17.9765 c -0.45,-1.483 1.708,-1.979 2.26,-0.623 12.266,30.109 16.42,64.231 8.545,95.996 -1.205,4.859 -8.322,2.754 -7.413,-2.044 M 445.5876,168.6508 c -0.062,-1.11 1.379,-1.285 1.922,-0.521 5.812,8.189 8.223,19.156 18.42,23.388 5.091,2.113 10.82,1.745 15.318,5.314 3.007,2.387 5.313,6.155 3.056,9.77 -0.728,1.168 -2.766,1.753 -3.754,0.484 -1.442,-1.849 -2.205,-4.063 -4.164,-5.449 -2.763,-1.955 -6.489,-2.076 -9.657,-2.995 -4.098,-1.188 -7.71,-3.267 -10.668,-6.356 M 542.6858,32.0669 c 0.599,-0.305 1.174,-0.11 1.557,0.408 0.547,0.738 0.48,1.456 -0.19,1.962 0.895,1.829 1.952,6.411 2.103,7.078 0.612,2.704 1.263,5.392 1.944,8.078 1.374,5.417 2.578,10.876 3.953,16.295 1.458,5.744 3.195,11.427 5.128,17.028 0.12467,0.362667 0.26178,0.732889 0.4057,1.108593 l 0.2203,0.567407 0.054,-0.086 c 0.393,-0.621 1.211,-0.187 1.114,0.469 -0.09,0.598 -0.211,1.193 -0.313,1.791 l 0.20255,0.535726 c 1.26443,3.403164 2.13035,6.987324 -0.18955,9.990274 -0.868,1.123 -1.823,1.788 -3.013,1.986 -1.908,6.29 -4.302,12.463 -6.865,18.391 l -0.75119,1.73124 c -3.77012,8.65017 -7.791,17.1867 -13.79381,24.55076 -6.554,8.04 -15.569,13.53 -21.278,22.34 -2.656,4.098 -4.504,8.407 -6.004,13.035 l -0.56427,1.75668 c -1.06469,3.2734 -2.29306,6.4462 -5.36373,8.36632 -0.98,0.612 -2.448,0.417 -3.238,-0.418 -6.297,-6.661 0.295,-19.099 4.092,-25.548 5.278,-8.968 12.917,-14.705 20.566,-21.471 8.245,-7.293 13.504,-17.049 18.591,-26.66 3.116,-5.888 6.124,-11.903 9.291,-17.817 -3.30873,-2.924382 -4.36788,-8.733296 -5.48886,-12.77095 L 544.7528,84.4019 c -1.853,-6.466 -3.325,-13.1 -4.255,-19.763 -0.89506,-6.406588 -1.26837,-12.721052 -1.03157,-19.163489 l 0.0683,-1.641122 M 554.9881,62.5587 c -0.731,-1.002 0.479,-2.137 1.482,-1.928 6.09821,1.260966 12.06031,4.952238 17.53348,7.937045 l 0.58452,0.316955 c 4.369,2.356 8.765,5.242 11.059,9.819 2.49503,4.974546 2.28948,10.704162 1.94922,16.110168 l -0.0322,0.505832 c -0.417,6.483 -0.484,13.219 -1.856,19.585 -0.702,3.258 -3.653,4.176 -6.176,3.406 -3.002,9.479 -11.435,16.463 -17.595,23.943 -7.854,9.536 -6.376,22.411 -5.555,33.896 0.332,4.65 -5.452,5.972 -8.431,3.491 l -6.86526,-5.70222 c -1.1433,-0.95178 -2.28507,-1.90545 -3.42374,-2.86278 -0.97533,-0.82067 -1.94178,-1.64756 -2.90022,-2.48482 l -1.43178,-1.26418 c -0.635,-0.568 -3.436,-3.697 -4.255,-3.827 -1.98373,-0.31533 -6.69668,4.91268 -8.30964,6.55241 l -0.20436,0.20459 c -3.036,2.977 -5.779,6.18 -8.334,9.577 -0.47,0.624 -1.389,0.106 -1.053,-0.615 2.28938,-4.90406 4.95141,-9.59279 8.11216,-13.98132 l 0.63884,-0.87368 c 2.103,-2.834 4.926,-7.838 8.638,-8.675 4.53256,-1.02127 9.05841,3.52406 12.35618,6.04679 l 0.20882,0.15821 c 1.569,1.177 3.12,2.375 4.668,3.581 -0.162,-8.551 0.918,-17.191 5.333,-24.56 3.113,-5.197 7.777,-9.046 11.768,-13.512 4.443,-4.973 6.763,-11.085 10.785,-16.264 0.518,-0.666 1.232,-1.025 2.005,-1.139 0.15454,-4.16364 0.76777,-8.36859 1.24162,-12.487153 L 577.0661,96.2797 c 0.479,-4.475 1.611,-9.941 -0.58,-14.132 -2.06963,-3.9585 -6.81832,-6.752682 -10.33478,-9.4385 l -2.87126,-2.227191 M 357.0735,15.2405 c -1.836,1.062 -3.552,2.383 -5.109,4.034 -4.901,5.199 -8.405,11.669 -11.815,17.893 -1.836,3.352 -3.606,6.741 -5.457,10.085 -0.805,1.455 -1.633,2.894 -2.47,4.331 -0.387,0.662 -1.537,1.978 -2.107,2.789 0.63335,0.887417 1.28819,1.761212 1.95616,2.625556 0.25485,0.32978 17.8356,19.481135 23.96384,26.976444 9.384,11.481 17.772,23.608 24.943,36.588 7.022,12.711 12.368,26.169 18.873,39.126 3.256,6.487 6.892,12.928 11.527,18.542 0.179,0.219 0.368,0.426 0.551,0.642 1.76894,-4.77884 6.30169,-9.89554 8.52793,-12.83356 l 0.20807,-0.27744 c 5.049,-6.806 10.381,-13.407 15.829,-19.896 4.976,-5.92533 10.07842,-11.72267 15.30445,-17.42431 l 1.96555,-2.13369 c 3.641,-3.933 8.266,-9.818 13.596,-12.628 -0.571,-1.018 -1.232,-2.025 -1.992,-3.019 -4.994,-6.52575 -12.0534,-11.261708 -19.01919,-15.535024 l -4.51735,-2.747899 C 424.80405,82.000792 408.0414,71.143085 393.2585,57.6605 c -7.821,-7.134 -15.534,-14.607 -22.108,-22.928 l -2.32494,-2.942117 M 385.4855,10.1035 c -7.974,0.669 -16.585,0.51 -23.954,3.108 6.551,6.193 12.778,12.88 19.175,19.177 0.569,-4.259 1.733,-8.466 2.719,-12.619"
             id="ðŸ–-Ink-0"
             fill="#000000"
             sodipodi:nodetypes="ccccccccccsscccccccccsscccscccccscccccccccccccccccccccccccccccccccccccccccccccccccccccccccccccccsccccsccccccccsccccccccccsccccccccccccccccccccsccsccsccscccccccccccccscccssccccccsccccccccccccccccccccccccccccccccccsscccccccccccccccccccssccccccccscccccccccsccccccccsccccccscccccccccccccccscccccsscccccccsscccccccccsccccccccsccccsscccccccccccccccccccccccccccccscccscccccscccccccccccccsccccccsccccccccccccccscccccccccccccccccccccccccsccccccccsccccccccccccccccccccc" />
        </g>
        <text
           xml:space="preserve"
           id="text116"
           style="font-style:normal;font-weight:normal;font-size:10.58329999999999949px;line-height:1.25;font-family:sans-serif;white-space:pre;shape-inside:url(#rect118);fill:#000000;fill-opacity:1;stroke:none;" />
      </g>
      <g
         id="a-person/bust"
         style="fill:none;fill-rule:evenodd;stroke:none;stroke-width:1"
         transform="matrix(0.26458333,0,0,0.26458333,-39.989515,-17.420249)">
        <g
           id="head/Long"
           transform="translate(78.591549,38.043053)"
           fill-rule="evenodd">
          <path
             d="M 91.246606,57.075781 C 90.445901,43.92937 86.181676,29.024736 73.631535,22.570098 45.964141,11.461949 9.5872394,39.435429 7.6613239,68.012524 6.9899155,77.794661 12.41907,88.483703 22.340408,91.203358 c 2.205845,2.923609 5.541761,4.709096 8.834367,6.258716 39.216971,20.354516 64.549436,3.808536 60.071831,-40.386293 z"
             id="path17"
             fill="#ffffff" />
          <path
             d="m 100.1808,48.898025 c -1.38592,-3.850802 -2.850004,-7.672016 -4.390145,-11.46364 -1.5,-3.690176 -2.854875,-7.460113 -4.717606,-10.975421 C 79.947697,5.4634262 59.716711,5.4634262 49.258965,8.206753 43.835725,5.8692188 33.677835,6.5285776 28.030796,8.6379076 18.888824,12.052694 7.744669,25.485696 3.9344578,31.521015 -4.478007,44.84644 -9.728007,62.582322 -4.1399789,77.980459 c 0.7303521,2.012478 1.661831,3.876376 2.7105634,5.672642 -0.6606338,0.895703 -1.4209859,1.744063 -2.2633099,2.577628 -2.5030985,2.477449 -5.0061971,4.873316 -7.1685216,7.667578 -2.148802,2.776931 -3.930211,5.729918 -5.256337,8.985773 -2.500564,6.14015 -2.620986,13.09272 0.684929,18.95157 2.876197,5.09776 7.9713381,8.89383 13.7116902,9.25587 0.2947183,0.041 0.5898592,0.0786 0.88626762,0.10842 0.76056338,1.25331 1.68802817,2.40728 2.74647888,3.41331 3.2429577,3.08571 10.9732393,4.66873 15.3823943,4.77018 0.226056,0.18176 0.454225,0.36352 0.682394,0.54317 2.697888,2.12407 5.528874,4.26716 8.626057,5.77831 2.097887,1.02505 4.848591,1.88102 7.037324,1.14129 0.992957,0.66365 2.621831,0.52415 3.606338,-0.019 1.61831,-0.8919 2.934507,-2.49816 3.735211,-4.14246 1.941549,-3.99241 1.474648,-8.36102 0.976056,-12.62607 -0.549295,-4.711 -1.077465,-9.42411 -1.614084,-14.13511 -0.420423,-3.68383 -0.859859,-7.42896 -1.979578,-10.97753 -0.578873,-1.83875 -1.337324,-3.60564 -2.317605,-5.26685 0.02535,-0.139491 0.02113,-0.278982 -0.01901,-0.410019 -0.321127,-1.044071 -0.984507,-1.591468 -1.770423,-2.301605 -0.101408,-0.09088 -0.202817,-0.183875 -0.302113,-0.278983 -0.392957,-0.448062 -0.81338,-0.864422 -1.26338,-1.217377 -0.173239,-0.175421 -0.344366,-0.352955 -0.515493,-0.53049 -1.421831,-1.490019 -2.765493,-3.056125 -3.959155,-4.734246 -1.157746,-1.627397 -2.203521,-3.326654 -3.198591,-5.057613 -1.011972,-1.760548 -1.68169,-3.702857 -2.69155,-5.450724 -0.08662,-0.150058 -0.306338,-0.179647 -0.428873,-0.05495 -0.312676,0.323366 -0.51338,0.682662 -0.475352,1.060979 l -0.156338,0.02325 c -0.05915,-0.570645 -0.585211,-1.035616 -1.299296,-0.91092 -1.069014,0.185989 -1.947887,0.255734 -2.873239,-0.09933 0.162676,-1.08 0.312676,-2.162114 0.460563,-3.246341 0.270423,-1.995146 0.521831,-3.996634 0.737324,-5.998121 0.521831,0.124697 1.039437,0.304344 1.546479,0.532603 0.722535,0.323366 1.40493,0.758747 1.988028,1.293463 0.574648,0.528376 0.971831,1.240627 1.67324,1.608376 0.807042,0.420587 1.780985,-0.274755 1.544366,-1.187788 -0.479578,-1.845088 -3.194366,-2.90184 -4.873944,-3.250568 -0.57676,-0.120469 -1.166197,-0.171194 -1.755634,-0.158513 0.133099,-1.285009 0.251409,-2.570019 0.348592,-3.857143 0.04648,-0.608688 0.08873,-1.217377 0.128873,-1.82818 1.305634,-0.395224 2.704225,-0.513581 4.062676,-0.327593 0.447888,0.357182 0.895775,0.710137 1.328874,1.067319 1.375352,1.137065 2.744366,2.28047 4.096478,3.44501 0.122535,0.103562 0.242958,0.207124 0.365493,0.312799 0.802817,0.691115 1.804226,0.0063 1.669014,-0.972212 -1.102817,-8.01863 3.807043,-14.397182 9.555634,-19.338552 6.363381,-5.471859 17.932394,-6.109017 25.5,-15.587084 3.485303,0.709628 11.266902,2.8173 14.478169,7.936204 4.495775,7.173229 3.908451,13.600391 4.250704,21.737378 0.342254,8.143326 1.212677,16.637495 -0.635915,24.666692 -1.70493,7.403601 -6.321127,13.729319 -13.483099,16.637499 -0.177465,0.0719 -0.357042,0.1416 -0.536619,0.20924 -3.703521,1.39702 -7.745071,1.79225 -11.640846,1.05675 -4.311971,-0.81581 -7.911971,-2.78983 -11.499295,-5.218244 -0.207042,-0.137378 -0.509155,0.145832 -0.352817,0.352955 4.728169,6.268649 14.015493,8.363139 21.382394,6.708259 0.344366,-0.0782 0.68662,-0.16274 1.026761,-0.25573 -1.647888,4.74059 -1.316197,9.94403 0.830282,14.55992 1.290844,2.77714 3.259859,5.1802 5.657746,7.07601 2.642958,2.08814 5.921831,3.77471 7.755634,6.70614 1.679577,2.68626 1.180986,5.70435 -1.694366,7.25566 -0.724648,0.39311 -1.003522,1.66332 -0.285212,2.22129 0.274648,0.21135 0.549296,0.42693 0.830282,0.63828 1.609859,1.21526 6.03169,3.49784 6.747887,3.58238 6.359155,0.75453 10.635212,-3.91632 13.375348,-9.42622 3.21761,-6.46732 2.38099,-14.34857 -1.16408,-20.50732 -2.843662,-4.94137 -8.444366,-9.81088 -6.217606,-16.06473 0.794367,-2.233978 2.419014,-4.138244 3.997183,-5.858636 1.799993,-1.959217 3.735213,-3.793738 5.461263,-5.8227 1.71549,-2.014169 3.23662,-4.205871 4.08592,-6.733621 1.24014,-3.694403 0.62324,-7.688923 -0.30845,-11.376986 -1.99648,-7.917182 -4.58874,-15.728689 -7.35,-23.407045 z"
             id="path19"
             fill="#000000" />
        </g>
        <g
           id="face/Smiling"
           transform="translate(112.1831,77.354207)"
           fill="#000000"
           fill-rule="evenodd">
          <path
             d="m 30.968993,50.919898 c -1.420199,-0.579597 -2.687376,-1.546402 -3.613804,-2.781433 -0.322085,-0.429348 -0.405596,-0.882732 -0.33803,-1.29741 0.07597,-0.466276 0.351722,-0.888873 0.72778,-1.172337 0.377224,-0.284343 0.849082,-0.424574 1.305271,-0.353088 0.396402,0.06212 0.791,0.279241 1.103296,0.729548 l 0.06525,0.09005 c 0.550778,0.745422 1.268492,1.357032 2.086277,1.75125 0.788212,0.379963 1.669747,0.557306 2.581992,0.454177 1.737429,-0.19634 2.934953,-1.136329 4.20779,-2.412817 0.157772,-0.16116 0.315645,-0.327372 0.474284,-0.496259 0.100183,-0.153096 0.239212,-0.251491 0.393572,-0.303117 0.171389,-0.05732 0.365271,-0.05408 0.542852,0.0079 0.171277,0.0598 0.32439,0.173105 0.427057,0.323913 0.09758,0.14333 0.152899,0.320396 0.134948,0.524065 -0.116505,1.322871 -0.807846,2.503477 -1.789869,3.430502 -1.090661,1.02958 -2.536412,1.741851 -3.897523,1.991666 -1.499545,0.275182 -3.027542,0.07803 -4.411139,-0.486629 z M 36.087529,30.51204 c 1.595362,0.970108 4.026203,3.232209 2.309961,5.637224 -2.020181,2.120581 -4.928786,-0.31081 -6.362095,-1.410433 -1.329032,-0.852215 -2.822274,1.339617 -1.589198,2.334721 10.357127,7.671008 14.560269,-6.307842 6.448244,-7.70212 -0.893164,-0.153644 -1.224887,0.840495 -0.806912,1.140608 z M 17.527458,21.588672 c 0.176266,-2.188802 3.508521,-2.68584 3.84,-0.519922 0.296831,1.940196 -0.05261,3.722513 -0.926197,5.469323 -0.834719,1.668822 -2.932715,0.890238 -3.091377,-0.629371 -0.21268,-2.036972 0.06793,-2.95847 0.177574,-4.32003 z m 25.36557,-0.96902 c 0.464578,-0.608689 1.135352,-1.024204 1.939014,-0.789394 2.510916,0.73402 1.770845,4.300133 0.889014,6.035953 -0.479155,0.942623 -2.027957,1.18166 -2.727887,0.351687 -1.140845,-1.353487 -1.687183,-4.056446 -0.236831,-5.389644 0.0393,-0.0689 0.08303,-0.138434 0.13669,-0.208602 z m -22.487134,-8.608509 0.396628,-0.06945 c 1.227,-0.21229 2.752633,-0.416276 3.620626,0.57056 0.460352,0.523304 0.618803,1.495938 0,1.996838 -1.088451,0.881331 -2.291831,0.539789 -3.596197,0.614395 -1.07493,0.06171 -2.108028,0.239672 -3.143451,0.535773 -2.271549,0.64948 -4.122465,1.835155 -6.062535,3.137073 -0.254578,0.170771 -0.514437,-0.15492 -0.392958,-0.393112 1.11993,-2.19445 3.290282,-3.997057 5.464225,-5.095867 1.160282,-0.586497 2.43,-1.073025 3.713662,-1.29621 z m 20.198235,-0.983014 0.303576,0.06215 c 3.303642,0.690821 7.595846,2.070794 9.160279,5.317019 0.05961,0.459028 -0.0034,0.557407 -0.05459,0.621682 l -0.01705,0.02139 c -0.0422,0.05489 -0.07588,0.130549 -0.274764,0.193024 -0.05519,-0.01316 -0.110931,-0.02709 -0.167261,-0.04186 -0.717109,-0.188001 -1.284481,-0.447 -1.833757,-0.715742 L 47.125001,16.192275 C 46.434039,15.85335 45.736976,15.52676 44.998249,15.285659 43.421742,14.771244 41.80017,14.408871 40.153474,14.215372 c -0.356909,-0.0419 -0.700589,-0.162408 -0.971729,-0.368932 -0.257365,-0.196032 -0.453976,-0.467444 -0.543619,-0.828209 -0.116178,-0.466887 -0.08279,-0.820359 0.167616,-1.24156 0.188291,-0.316313 0.457705,-0.535559 0.767061,-0.661458 0.315374,-0.128348 0.674425,-0.158606 1.031326,-0.08708 z"
             id="path22" />
        </g>
        <g
           id="facial-hair/*-None"
           transform="translate(104.57745,109.47938)" />
        <g
           id="accessories/*-None"
           transform="translate(88.521127,88.978474)" />
      </g>
      <text
         xml:space="preserve"
         id="text38"
         style="font-size:10.58329999999999949px;line-height:0.9;font-family:sans-serif;letter-spacing:0px;white-space:pre;shape-inside:url(#rect40);"
         transform="translate(-73.768841,-40.259703)"><tspan
           x="90.044922"
           y="48.315389"><tspan
             style="font-style:normal;font-variant:normal;font-weight:300;font-stretch:normal;font-family:'Noto Sans CJK KR';-inkscape-font-specification:'Noto Sans CJK KR Light'">I had the best day </tspan></tspan><tspan
           x="90.044922"
           y="58.821111"><tspan
             style="font-style:normal;font-variant:normal;font-weight:300;font-stretch:normal;font-family:'Noto Sans CJK KR';-inkscape-font-specification:'Noto Sans CJK KR Light'">ever today :D</tspan></tspan></text>
      <text
         xml:space="preserve"
         id="text38-4"
         style="font-size:10.58329999999999949px;line-height:1.05;font-family:sans-serif;letter-spacing:0px;white-space:pre;shape-inside:url(#rect40-4);fill-rule:evenodd;"
         transform="translate(-59.930892,-6.3742844)"><tspan
           x="90.044922"
           y="49.109136"><tspan
             style="font-style:normal;font-variant:normal;font-weight:300;font-stretch:normal;font-family:'Noto Sans CJK KR';-inkscape-font-specification:'Noto Sans CJK KR Light';fill:#ffce05;fill-opacity:1;fill-rule:evenodd">M9nXC9AGvqlcsW</tspan></tspan><tspan
           x="90.044922"
           y="61.202352"><tspan
             style="font-style:normal;font-variant:normal;font-weight:300;font-stretch:normal;font-family:'Noto Sans CJK KR';-inkscape-font-specification:'Noto Sans CJK KR Light';fill:#ffce05;fill-opacity:1;fill-rule:evenodd">GzlOGPBoFcr</tspan></tspan></text>
    </g>
  </g>
</svg>
